<svg width="40" height="38" viewBox="0 0 40 38" fill="none" xmlns="http://www.w3.org/2000/svg">
<path fill-rule="evenodd" clip-rule="evenodd" d="M39.6997 13.0666C38.6506 10.2529 37.1013 7.71028 35.0911 5.50804C33.093 3.31948 30.7007 1.54644 27.978 0.238436C27.6718 0.0925163 27.3049 0.144316 27.0533 0.376956L9.5648 16.3386L7.5454 18.182C7.43628 18.2691 7.34229 18.3854 7.28466 18.5266C7.27572 18.5473 7.26652 18.5751 7.25728 18.5997L2.55475 30.8096L0.547652 36.0262C0.432404 36.3213 0.499142 36.6525 0.711452 36.889C0.871934 37.0652 1.09647 37.1581 1.32675 37.1581C1.40265 37.1581 1.48148 37.1489 1.55733 37.125L6.93594 35.6008L19.5855 32.0137C19.6643 31.9921 19.7432 31.9568 19.816 31.9107C19.8553 31.8831 19.8947 31.853 19.931 31.8228L21.996 29.9376L39.4814 13.975C39.733 13.7454 39.818 13.3848 39.6997 13.0666ZM3.77972 32.273C3.81298 32.2949 3.85246 32.3079 3.88602 32.3254C4.24357 32.55 4.57717 32.7981 4.85303 33.1041C5.12893 33.4066 5.34729 33.7595 5.5383 34.1339C5.55964 34.1676 5.56854 34.2097 5.5837 34.2473L2.70637 35.0645L3.77972 32.273ZM18.9458 30.4585L7.23313 33.7799C7.19978 33.7077 7.14224 33.6535 7.10587 33.5828C6.83589 32.9958 6.51153 32.4435 6.08703 31.9767C5.65956 31.5111 5.13804 31.1411 4.57717 30.817C4.50741 30.7764 4.46495 30.7136 4.39519 30.6772L8.76735 19.3258L10.0771 18.1368L11.1353 19.2932L20.2494 29.2683L18.9458 30.4585ZM21.4834 28.1412L18.8366 25.2451L32.7383 12.5617C32.9171 12.3947 33.0079 12.1695 33.0079 11.9398C33.0079 11.7426 32.9383 11.5399 32.7897 11.3803C32.4805 11.04 31.9499 11.0178 31.6102 11.3274L17.7087 24.0117L17.1659 23.4144L15.0829 21.1302L28.9786 8.44732C29.1604 8.2792 29.2515 8.05512 29.2515 7.82484C29.2515 7.62768 29.1786 7.42552 29.0332 7.2648C28.7208 6.9262 28.1902 6.90516 27.8506 7.213L13.952 19.8991L11.3111 17.0054L27.7567 1.9928C30.0762 3.18004 32.1288 4.737 33.857 6.63788C35.5973 8.54024 36.9617 10.722 37.932 13.1276L21.4834 28.1412Z" fill="url(#paint0_linear)"/>
<path fill-rule="evenodd" clip-rule="evenodd" d="M39.6997 13.0666C38.6506 10.2529 37.1013 7.71028 35.0911 5.50804C33.093 3.31948 30.7007 1.54644 27.978 0.238436C27.6718 0.0925163 27.3049 0.144316 27.0533 0.376956L9.5648 16.3386L7.5454 18.182C7.43628 18.2691 7.34229 18.3854 7.28466 18.5266C7.27572 18.5473 7.26652 18.5751 7.25728 18.5997L2.55475 30.8096L0.547652 36.0262C0.432404 36.3213 0.499142 36.6525 0.711452 36.889C0.871934 37.0652 1.09647 37.1581 1.32675 37.1581C1.40265 37.1581 1.48148 37.1489 1.55733 37.125L6.93594 35.6008L19.5855 32.0137C19.6643 31.9921 19.7432 31.9568 19.816 31.9107C19.8553 31.8831 19.8947 31.853 19.931 31.8228L21.996 29.9376L39.4814 13.975C39.733 13.7454 39.818 13.3848 39.6997 13.0666ZM3.77972 32.273C3.81298 32.2949 3.85246 32.3079 3.88602 32.3254C4.24357 32.55 4.57717 32.7981 4.85303 33.1041C5.12893 33.4066 5.34729 33.7595 5.5383 34.1339C5.55964 34.1676 5.56854 34.2097 5.5837 34.2473L2.70637 35.0645L3.77972 32.273ZM18.9458 30.4585L7.23313 33.7799C7.19978 33.7077 7.14224 33.6535 7.10587 33.5828C6.83589 32.9958 6.51153 32.4435 6.08703 31.9767C5.65956 31.5111 5.13804 31.1411 4.57717 30.817C4.50741 30.7764 4.46495 30.7136 4.39519 30.6772L8.76735 19.3258L10.0771 18.1368L11.1353 19.2932L20.2494 29.2683L18.9458 30.4585ZM21.4834 28.1412L18.8366 25.2451L32.7383 12.5617C32.9171 12.3947 33.0079 12.1695 33.0079 11.9398C33.0079 11.7426 32.9383 11.5399 32.7897 11.3803C32.4805 11.04 31.9499 11.0178 31.6102 11.3274L17.7087 24.0117L17.1659 23.4144L15.0829 21.1302L28.9786 8.44732C29.1604 8.2792 29.2515 8.05512 29.2515 7.82484C29.2515 7.62768 29.1786 7.42552 29.0332 7.2648C28.7208 6.9262 28.1902 6.90516 27.8506 7.213L13.952 19.8991L11.3111 17.0054L27.7567 1.9928C30.0762 3.18004 32.1288 4.737 33.857 6.63788C35.5973 8.54024 36.9617 10.722 37.932 13.1276L21.4834 28.1412Z" fill="#FF3B4A"/>
<defs>
<linearGradient id="paint0_linear" x1="19.1872" y1="-17.4628" x2="-15.8891" y2="21.6161" gradientUnits="userSpaceOnUse">
<stop stop-color="white"/>
<stop offset="1" stop-color="white"/>
</linearGradient>
</defs>
</svg>
