<svg width="44" height="34" viewBox="0 0 44 34" fill="none" xmlns="http://www.w3.org/2000/svg">
<path fill-rule="evenodd" clip-rule="evenodd" d="M43.9546 7.04363V17.4455C43.9559 17.463 43.9647 17.4765 43.9734 17.4899C43.9827 17.5042 43.9919 17.5185 43.9919 17.5373C43.9919 17.5548 43.9829 17.5683 43.9737 17.582C43.9649 17.5951 43.956 17.6084 43.9546 17.6258V27.9667C43.9546 28.3992 43.5993 28.747 43.1641 28.747H40.5262C40.0909 28.747 39.7386 28.3992 39.7386 27.9667C39.7386 27.5352 40.0909 27.1859 40.5262 27.1859H42.3764V18.3161H35.2504C34.815 18.3161 34.4626 17.9671 34.4626 17.5373V7.82209H28.1243V22.1412C28.1243 22.5704 27.772 22.9221 27.3367 22.9221C26.9012 22.9221 26.5461 22.5704 26.5461 22.1412V7.04363V2.55245H1.58456V27.1859H3.46357C3.89887 27.1859 4.25408 27.5352 4.25408 27.9667C4.25408 28.3992 3.89887 28.747 3.46357 28.747H0.79695C0.361468 28.747 0.00634766 28.3992 0.00634766 27.9667V1.77456C0.00634766 1.34421 0.361468 0.996094 0.79695 0.996094H27.3367C27.772 0.996094 28.1243 1.34421 28.1243 1.77456V6.26217H43.1641C43.5993 6.26217 43.9546 6.61325 43.9546 7.04363ZM36.038 16.7558H42.3764V7.82209H36.038V16.7558ZM26.5089 27.9691C26.5089 24.6507 29.2412 21.9521 32.6009 21.9521C35.9548 21.9521 38.6844 24.6507 38.6844 27.9691C38.6844 31.2893 35.9548 33.9888 32.6009 33.9888C29.2412 33.9888 26.5089 31.2893 26.5089 27.9691ZM28.087 27.9691C28.087 30.4294 30.1121 32.4292 32.6009 32.4292C35.0842 32.4292 37.1063 30.4294 37.1063 27.9691C37.1063 25.5103 35.0842 23.5114 32.6009 23.5114C30.1121 23.5114 28.087 25.5103 28.087 27.9691ZM5.30794 27.9667C5.30794 24.648 8.03763 21.9482 11.3973 21.9482C14.754 21.9482 17.4866 24.648 17.4866 27.9667C17.4866 31.2878 14.754 33.9858 11.3973 33.9858C8.03763 33.9858 5.30794 31.2878 5.30794 27.9667ZM6.88344 27.9667C6.88344 30.4265 8.90831 32.4265 11.3973 32.4265C13.8834 32.4265 15.9085 30.4265 15.9085 27.9667C15.9085 25.5079 13.8834 23.5105 11.3973 23.5105C8.90831 23.5105 6.88344 25.5079 6.88344 27.9667ZM19.3282 27.1859H24.6672C25.1025 27.1859 25.4547 27.5352 25.4547 27.9667C25.4547 28.3992 25.1025 28.747 24.6672 28.747H19.3282C18.8929 28.747 18.5407 28.3992 18.5407 27.9667C18.5407 27.5352 18.8929 27.1859 19.3282 27.1859Z" fill="url(#paint0_linear)"/>
<path fill-rule="evenodd" clip-rule="evenodd" d="M43.9546 7.04363V17.4455C43.9559 17.463 43.9647 17.4765 43.9734 17.4899C43.9827 17.5042 43.9919 17.5185 43.9919 17.5373C43.9919 17.5548 43.9829 17.5683 43.9737 17.582C43.9649 17.5951 43.956 17.6084 43.9546 17.6258V27.9667C43.9546 28.3992 43.5993 28.747 43.1641 28.747H40.5262C40.0909 28.747 39.7386 28.3992 39.7386 27.9667C39.7386 27.5352 40.0909 27.1859 40.5262 27.1859H42.3764V18.3161H35.2504C34.815 18.3161 34.4626 17.9671 34.4626 17.5373V7.82209H28.1243V22.1412C28.1243 22.5704 27.772 22.9221 27.3367 22.9221C26.9012 22.9221 26.5461 22.5704 26.5461 22.1412V7.04363V2.55245H1.58456V27.1859H3.46357C3.89887 27.1859 4.25408 27.5352 4.25408 27.9667C4.25408 28.3992 3.89887 28.747 3.46357 28.747H0.79695C0.361468 28.747 0.00634766 28.3992 0.00634766 27.9667V1.77456C0.00634766 1.34421 0.361468 0.996094 0.79695 0.996094H27.3367C27.772 0.996094 28.1243 1.34421 28.1243 1.77456V6.26217H43.1641C43.5993 6.26217 43.9546 6.61325 43.9546 7.04363ZM36.038 16.7558H42.3764V7.82209H36.038V16.7558ZM26.5089 27.9691C26.5089 24.6507 29.2412 21.9521 32.6009 21.9521C35.9548 21.9521 38.6844 24.6507 38.6844 27.9691C38.6844 31.2893 35.9548 33.9888 32.6009 33.9888C29.2412 33.9888 26.5089 31.2893 26.5089 27.9691ZM28.087 27.9691C28.087 30.4294 30.1121 32.4292 32.6009 32.4292C35.0842 32.4292 37.1063 30.4294 37.1063 27.9691C37.1063 25.5103 35.0842 23.5114 32.6009 23.5114C30.1121 23.5114 28.087 25.5103 28.087 27.9691ZM5.30794 27.9667C5.30794 24.648 8.03763 21.9482 11.3973 21.9482C14.754 21.9482 17.4866 24.648 17.4866 27.9667C17.4866 31.2878 14.754 33.9858 11.3973 33.9858C8.03763 33.9858 5.30794 31.2878 5.30794 27.9667ZM6.88344 27.9667C6.88344 30.4265 8.90831 32.4265 11.3973 32.4265C13.8834 32.4265 15.9085 30.4265 15.9085 27.9667C15.9085 25.5079 13.8834 23.5105 11.3973 23.5105C8.90831 23.5105 6.88344 25.5079 6.88344 27.9667ZM19.3282 27.1859H24.6672C25.1025 27.1859 25.4547 27.5352 25.4547 27.9667C25.4547 28.3992 25.1025 28.747 24.6672 28.747H19.3282C18.8929 28.747 18.5407 28.3992 18.5407 27.9667C18.5407 27.5352 18.8929 27.1859 19.3282 27.1859Z" fill="#FF3B4A"/>
<defs>
<linearGradient id="paint0_linear" x1="17.2181" y1="-11.9141" x2="-6.00786" y2="27.6518" gradientUnits="userSpaceOnUse">
<stop stop-color="white"/>
<stop offset="1" stop-color="white"/>
</linearGradient>
</defs>
</svg>
